# xmcd
#
# Track frame offsets:
#       150
#       12540
#       27540
#       40622
#       50370
#       60547
#       69927
#       81175
#       93855
#       107247
#       123052
#       133855
#
# Disc length: 1978 seconds
#
# Revision: 0
# Processed by: cddbd v1.4PL0 Copyright (c) Steve Scherf et al.
# Submitted via: CD-DA_X-Tractor v0.21
#
DISCID=9807b80c
DTITLE=Chitãozinho and Xororó - 
DYEAR=1900
DGENRE=
TTITLE0=Doce Amada
TTITLE1=Uma Casa de Caboclo
TTITLE2=Sonhos Perdidos
TTITLE3=Mendigo por tua culpa
TTITLE4=Professora do Desprezo
TTITLE5=Rosa Branca
TTITLE6=Minha Infância
TTITLE7=Caboclo de Fato
TTITLE8=A Saudade Continua
TTITLE9=João Ninguém
TTITLE10=Coceira de Canela
TTITLE11=Manhã de Sol
EXTD=
EXTT0=
EXTT1=
EXTT2=
EXTT3=
EXTT4=
EXTT5=
EXTT6=
EXTT7=
EXTT8=
EXTT9=
EXTT10=
EXTT11=
PLAYORDER=
